<?xml version="1.0" standalone="no"?>
<!DOCTYPE svg PUBLIC "-//W3C//DTD SVG 20010904//EN"
 "http://www.w3.org/TR/2001/REC-SVG-20010904/DTD/svg10.dtd">
<svg version="1.0" xmlns="http://www.w3.org/2000/svg"
 width="300.000000pt" height="309.000000pt" viewBox="0 0 300.000000 309.000000"
 preserveAspectRatio="xMidYMid meet">
<metadata> Created by Hamsa Vardhan </metadata>
<g transform="translate(0.000000,309.000000) scale(0.100000,-0.100000)"
fill="#000000" stroke="none">
<path d="M1334 3001 c-37 -14 -48 -36 -11 -22 12 4 29 6 37 4 13 -4 13 -3 0 7
-12 8 -10 9 11 5 16 -4 30 -1 38 8 10 13 7 15 -15 13 -14 0 -41 -7 -60 -15z"/>
<path d="M1424 2999 c-9 -10 -24 -19 -32 -19 -21 0 -9 -10 19 -15 27 -5 101
-74 92 -87 -3 -6 -10 -5 -16 1 -6 6 -20 11 -31 11 -12 0 -36 9 -53 20 -18 11
-33 16 -33 12 1 -12 27 -42 32 -36 3 2 29 -5 58 -16 29 -11 58 -19 64 -16 6 2
2 5 -9 6 -20 1 -20 2 -1 9 18 7 13 14 -39 64 -41 39 -54 58 -44 61 7 2 21 6
28 8 12 4 12 5 -1 10 -10 4 -23 -1 -34 -13z"/>
<path d="M1468 2998 c-20 -20 -24 -33 -8 -23 16 10 50 -5 50 -21 0 -9 -5 -12
-12 -8 -7 4 -8 3 -4 -4 4 -7 13 -12 21 -12 8 0 17 -5 21 -12 4 -7 3 -8 -4 -4
-7 4 -12 2 -12 -4 0 -7 8 -9 20 -5 12 4 27 2 33 -4 8 -6 18 -7 27 0 13 8 12 9
-1 7 -21 -4 -98 64 -80 70 7 2 26 -5 42 -17 35 -26 60 -28 33 -2 -11 10 -38
24 -60 31 -21 7 -41 16 -44 19 -3 4 -13 -1 -22 -11z"/>
<path d="M1633 2992 c-24 -2 -43 -7 -43 -13 0 -5 13 -8 29 -7 16 1 36 -4 45
-11 8 -7 20 -10 26 -6 13 8 9 -17 -5 -27 -5 -4 0 -6 13 -5 12 0 22 5 22 9 0 4
4 8 10 8 5 0 7 -7 4 -15 -4 -8 -1 -15 5 -15 12 0 80 -68 82 -82 1 -4 3 -12 4
-18 1 -5 3 -15 4 -21 0 -5 6 -7 11 -4 6 3 10 0 10 -7 0 -10 2 -11 8 0 5 7 16
10 26 6 16 -6 16 -8 -1 -26 -16 -18 -16 -19 2 -12 16 7 18 3 12 -29 -3 -23 -1
-37 6 -40 7 -2 -5 -5 -25 -5 -22 0 -39 5 -42 14 -3 8 -18 13 -33 13 -17 -1
-21 -3 -10 -6 25 -6 21 -23 -5 -23 -21 -1 -21 -2 -5 -11 10 -6 31 -7 48 -4 18
4 36 2 44 -5 22 -18 19 -63 -6 -78 -17 -11 -20 -19 -14 -50 6 -35 6 -36 -9
-15 -9 11 -17 30 -19 42 -5 36 -17 36 -17 0 0 -22 10 -48 26 -70 25 -33 26
-37 20 -142 -4 -59 -16 -144 -27 -190 -11 -45 -22 -89 -24 -97 -2 -8 -4 -21
-4 -28 -1 -7 -5 -10 -11 -7 -5 3 -10 2 -10 -4 0 -5 -8 -17 -17 -27 -10 -9 -18
-26 -18 -38 -2 -53 -51 -126 -84 -126 -14 0 -14 -1 -1 -10 12 -8 12 -10 -5
-10 -24 0 -105 -32 -105 -42 0 -9 44 5 114 36 32 14 59 26 60 26 0 0 2 -17 4
-37 1 -20 13 -51 27 -69 14 -19 25 -36 24 -40 -1 -11 24 -24 51 -25 21 0 22
-2 7 -8 -18 -7 -18 -8 -1 -21 10 -8 15 -10 11 -4 -4 7 0 15 9 18 8 3 12 2 9
-4 -3 -6 -2 -10 4 -10 6 0 8 -7 4 -16 -5 -15 -3 -15 20 1 24 15 27 15 27 2 0
-23 31 -37 53 -25 14 7 17 7 13 -1 -4 -5 4 -15 16 -22 20 -10 22 -10 13 2 -5
8 -1 5 10 -7 25 -27 87 -48 117 -39 23 7 23 7 3 -9 -19 -16 -18 -16 18 -10 22
4 37 2 37 -4 0 -13 38 -23 46 -11 3 5 12 2 21 -6 8 -9 25 -15 37 -14 21 2 39
-3 86 -24 14 -6 29 -10 34 -8 5 1 6 -5 2 -14 -4 -10 -2 -14 5 -9 6 4 15 0 20
-7 11 -19 18 -8 9 16 -8 21 -65 48 -170 80 -63 19 -230 80 -275 100 -177 79
-203 94 -230 129 -26 34 -28 41 -22 109 7 92 39 165 76 169 37 4 60 53 77 160
18 108 10 147 -27 128 -19 -11 -20 -10 -8 12 9 15 12 57 10 125 -2 103 7 143
33 143 50 0 17 211 -44 275 -24 25 -47 35 -34 13 5 -7 3 -8 -5 -4 -7 5 -10 10
-7 13 9 9 -103 85 -114 78 -6 -3 -10 3 -10 14 0 26 -25 37 -77 33z m272 -739
c-4 -10 -11 -45 -15 -79 -4 -34 -12 -70 -17 -80 -6 -10 -8 -26 -5 -34 2 -8 1
-11 -4 -7 -4 4 -14 -3 -21 -15 -12 -23 -12 -23 -13 6 0 16 11 41 25 58 26 30
33 58 15 58 -5 0 -10 -7 -10 -15 0 -8 -5 -15 -11 -15 -7 0 -8 7 -3 18 4 9 9
35 12 57 5 45 17 65 39 65 10 0 13 -6 8 -17z"/>
<path d="M1265 2969 c-12 -6 -26 -19 -33 -29 -10 -16 -9 -18 11 -16 12 1 35 8
52 15 16 7 37 10 47 8 24 -7 23 10 -2 18 -11 3 -30 -1 -45 -11 -30 -20 -47
-10 -19 11 22 17 18 18 -11 4z"/>
<path d="M1221 2904 c-13 -7 -29 -21 -34 -31 -9 -16 -9 -16 6 -4 23 19 21 -2
-2 -23 -21 -19 -61 -121 -61 -157 0 -13 0 -46 -1 -73 0 -30 5 -52 13 -57 10
-7 9 -9 -3 -9 -16 0 -36 -47 -25 -58 15 -14 40 31 50 90 1 3 4 10 9 14 4 4 7
20 7 36 0 21 -5 28 -20 28 -11 0 -20 5 -20 11 0 5 5 7 10 4 6 -3 10 -3 11 2 0
4 2 15 5 23 2 8 8 33 13 55 5 22 9 35 10 28 1 -13 41 -5 41 8 0 5 -7 6 -15 3
-8 -4 -15 -2 -15 3 0 13 44 53 58 53 7 0 12 4 12 9 0 5 6 11 13 14 17 6 -19
-2 -43 -9 -17 -5 -19 -3 -13 12 4 11 8 13 11 6 3 -9 9 -9 24 -1 11 6 31 8 44
5 17 -5 24 -2 24 8 0 8 -4 18 -10 21 -5 3 -10 2 -10 -3 0 -5 -13 -12 -29 -14
-17 -2 -28 -1 -25 3 8 14 -11 16 -35 3z"/>
<path d="M1620 2903 c0 -15 52 -36 59 -25 3 6 17 12 31 15 16 3 10 5 -15 4
-22 0 -48 3 -57 7 -10 5 -18 4 -18 -1z"/>
<path d="M1714 2856 c29 -26 93 -52 103 -42 3 3 -3 9 -13 13 -10 4 -28 16 -39
28 -11 11 -33 22 -49 24 l-29 3 27 -26z"/>
<path d="M1320 2861 c0 -6 5 -13 11 -16 6 -5 4 -12 -8 -20 -17 -13 -16 -14 4
-8 30 7 52 33 29 33 -9 0 -16 5 -16 10 0 6 -4 10 -10 10 -5 0 -10 -4 -10 -9z"/>
<path d="M1544 2851 c4 -5 0 -12 -6 -14 -8 -3 -6 -6 5 -6 9 -1 17 -5 17 -11 0
-11 -21 -5 -67 18 -28 14 -35 14 -45 3 -8 -8 -8 -11 -2 -8 7 4 15 0 18 -9 3
-8 11 -12 17 -9 6 4 22 -7 36 -24 14 -17 32 -31 39 -31 7 0 15 -6 17 -12 3 -7
6 -1 6 15 1 15 -4 27 -11 27 -9 0 -9 3 -1 11 17 17 34 1 29 -27 -4 -21 -2 -23
9 -14 9 7 15 8 20 0 3 -5 15 -10 26 -10 10 0 19 -4 19 -10 0 -5 5 -10 12 -10
6 0 4 7 -5 18 -10 10 -17 24 -17 30 0 7 -7 9 -17 5 -16 -6 -16 -5 -4 10 12 15
11 17 -10 18 l-24 1 25 8 25 7 -30 7 c-16 4 -38 11 -47 17 -23 12 -41 12 -34
0z"/>
<path d="M1652 2853 c-15 -6 23 -43 45 -43 13 0 19 39 6 41 -5 0 -15 2 -23 3
-8 2 -21 1 -28 -1z"/>
<path d="M1350 2805 c-12 -18 -12 -19 3 -6 15 12 17 11 17 -3 0 -11 -9 -16
-30 -16 -16 0 -30 -4 -30 -10 0 -5 -7 -10 -16 -10 -8 0 -13 -4 -10 -9 3 -5
-12 -11 -34 -15 -46 -7 -60 -24 -35 -43 18 -13 18 -13 -1 -14 -10 0 -13 -3 -6
-6 6 -2 9 -9 6 -14 -3 -6 -7 -22 -9 -37 -2 -24 1 -22 41 23 24 28 42 56 39 63
-3 7 -1 11 3 9 4 -3 13 1 20 9 10 11 10 14 0 14 -7 0 -5 5 5 11 13 8 22 8 29
1 7 -7 18 -6 34 5 13 8 28 12 33 8 9 -5 51 27 51 39 0 10 -46 14 -57 4 -8 -6
-17 -8 -20 -4 -4 4 -1 11 7 16 11 7 10 9 -6 8 -12 -1 -27 -11 -34 -23z"/>
<path d="M1676 2791 c-4 -5 6 -18 20 -28 25 -18 25 -20 9 -36 -9 -9 -12 -17
-6 -17 6 0 10 -3 10 -7 -3 -19 2 -33 11 -33 6 0 7 15 4 36 -5 31 -3 36 10 31
9 -4 16 -2 16 3 0 5 7 7 15 4 22 -9 18 9 -5 23 -16 11 -18 10 -14 -2 9 -23 -6
-18 -28 10 -20 26 -33 31 -42 16z"/>
<path d="M1801 2742 l-20 -29 34 15 c20 9 34 21 32 26 -7 21 -26 16 -46 -12z"/>
<path d="M1370 2695 c0 -19 23 -45 40 -45 13 0 17 -5 14 -14 -5 -12 33 -45 40
-34 1 2 8 12 16 22 14 18 13 19 -7 14 -16 -4 -23 -2 -23 8 0 8 -6 14 -14 14
-7 0 -25 9 -40 21 -14 11 -26 18 -26 14z"/>
<path d="M1096 2639 c2 -4 -1 -9 -6 -11 -6 -2 -13 -17 -16 -33 -2 -17 -7 -36
-9 -43 -3 -8 1 -22 9 -33 11 -16 15 -17 19 -5 3 8 1 16 -5 18 -7 3 -5 15 5 35
9 17 14 33 11 36 -3 3 -1 14 5 24 8 15 7 20 -4 20 -8 0 -12 -4 -9 -8z"/>
<path d="M1697 2597 c-24 -18 -29 -19 -37 -7 -5 8 -12 12 -15 8 -4 -4 3 -20
16 -37 12 -17 25 -29 27 -26 3 2 -1 11 -8 20 -10 12 -10 15 2 15 13 0 53 39
46 45 -2 1 -16 -7 -31 -18z"/>
<path d="M1330 2495 c-47 -13 -79 -24 -72 -24 8 -1 10 -6 6 -13 -6 -10 -4 -10
7 -2 17 14 135 19 143 6 3 -5 0 -17 -8 -27 -10 -14 -16 -16 -34 -6 -16 8 -22
9 -22 1 0 -7 -16 -11 -37 -10 -57 3 -75 1 -69 -8 2 -4 -4 -8 -15 -8 -23 0 -24
4 -2 28 15 17 15 18 0 18 -9 0 -26 -18 -37 -40 l-21 -41 49 3 c32 2 48 7 45
14 -2 7 0 15 6 18 5 4 12 -3 16 -14 9 -27 55 -28 55 -1 0 27 17 35 23 11 3
-11 1 -20 -5 -20 -5 0 -7 -4 -4 -9 8 -13 -19 -21 -70 -21 -49 0 -57 -11 -19
-28 67 -31 145 12 165 90 14 48 37 48 62 -1 28 -56 77 -110 118 -131 22 -11
42 -20 46 -20 13 0 -38 39 -60 46 -34 11 -52 54 -21 54 9 0 12 6 8 16 -3 8
-12 13 -20 10 -8 -4 -11 -1 -8 5 4 6 13 8 21 5 8 -3 14 -1 14 4 0 6 5 10 10
10 6 0 10 -9 10 -19 0 -26 9 -31 71 -38 28 -3 57 -12 64 -20 8 -7 16 -9 19 -4
8 13 -29 51 -55 56 -12 3 -25 9 -29 14 -7 13 -109 18 -132 7 -13 -6 -18 -4
-18 7 0 9 -9 23 -21 31 -14 9 -18 19 -13 28 12 19 14 39 2 32 -5 -3 -12 -14
-16 -24 -6 -17 -10 -17 -41 -4 -23 9 -31 19 -27 29 3 8 4 15 3 14 -1 0 -40
-11 -87 -24z"/>
<path d="M1532 2502 c-7 -5 -10 -16 -6 -26 5 -14 9 -15 15 -4 6 8 9 9 9 1 0
-11 29 -20 85 -25 37 -3 46 15 10 19 -14 2 -40 13 -58 23 -36 23 -37 23 -55
12z"/>
<path d="M1700 2475 c0 -18 5 -25 19 -25 11 0 26 -7 35 -15 16 -17 26 -19 26
-7 0 5 -18 23 -40 41 l-40 32 0 -26z"/>
<path d="M1084 2459 c-14 -16 -16 -23 -6 -26 7 -3 17 -14 24 -26 10 -20 10
-21 -5 -8 -15 12 -17 11 -17 -6 0 -10 5 -24 11 -30 8 -8 8 -13 0 -17 -16 -10
-14 -23 4 -30 12 -4 15 2 15 27 0 17 3 56 8 85 9 58 -1 68 -34 31z"/>
<path d="M1570 2346 c0 -15 72 -36 115 -34 57 2 49 10 -18 19 -29 4 -62 10
-74 14 -13 4 -23 4 -23 1z"/>
<path d="M1490 2326 c0 -2 18 -23 40 -47 42 -46 45 -78 11 -107 -9 -8 -11 -11
-5 -8 6 3 20 -4 30 -16 19 -20 19 -21 -6 -13 -14 4 -36 15 -49 24 l-24 15 28
12 c21 8 24 12 12 17 -9 3 -27 -3 -40 -14 -30 -23 -57 -25 -57 -4 0 8 -5 15
-11 15 -5 0 -8 4 -4 9 4 8 -62 4 -72 -3 -1 -1 4 -14 11 -28 8 -15 11 -30 8
-34 -4 -3 4 -3 17 1 14 4 26 3 30 -4 4 -6 29 -13 55 -15 57 -5 103 -22 133
-49 31 -28 39 -15 13 21 -27 36 -43 102 -29 118 7 9 1 22 -19 46 -16 18 -31
41 -35 51 -5 14 -37 26 -37 13z"/>
<path d="M1015 2300 c-4 -6 1 -22 9 -35 13 -20 15 -40 10 -105 -8 -95 7 -130
55 -130 24 0 31 -5 36 -30 3 -16 16 -41 27 -55 19 -24 20 -35 14 -118 -11
-163 -30 -277 -57 -344 -6 -15 -13 -41 -15 -58 -5 -48 -7 -55 -13 -55 -3 0 -7
-12 -8 -27 -1 -16 -4 -39 -6 -53 -2 -14 -10 -63 -17 -110 -6 -46 -13 -87 -15
-91 -2 -3 -7 -34 -10 -70 -4 -35 -8 -75 -11 -88 -6 -45 -17 -244 -17 -338 -1
-85 -2 -92 -21 -96 -21 -4 -21 -4 -1 -6 17 -1 20 -7 17 -38 -1 -21 -2 -64 -2
-95 1 -55 0 -57 -27 -61 l-28 -4 28 -2 c21 -1 27 -6 25 -18 -2 -10 -10 -21
-18 -25 -13 -6 -13 -7 1 -7 14 -1 16 -14 16 -86 0 -47 -5 -85 -10 -85 -5 0 -3
-8 4 -17 8 -9 9 -14 3 -10 -7 4 -10 -2 -6 -18 5 -26 21 -34 23 -12 4 36 8 160
13 412 3 154 8 305 11 335 2 30 7 91 10 135 8 101 12 134 36 273 10 63 19 126
19 142 0 28 41 164 53 177 4 3 7 -1 7 -10 0 -9 5 -17 10 -17 6 0 5 11 -4 28
-10 20 -12 39 -6 72 12 63 21 132 29 230 5 47 9 79 10 72 0 -7 5 -11 10 -8 5
3 8 -9 7 -27 -2 -37 26 -144 45 -175 8 -12 21 -22 29 -22 13 0 13 1 0 10 -8 5
-11 10 -7 10 5 0 1 12 -7 28 -13 25 -28 72 -31 97 0 6 -7 21 -14 33 -7 13 -10
26 -8 29 5 5 38 -12 75 -39 15 -11 36 -15 64 -12 49 5 68 18 68 50 0 31 18 40
22 12 l3 -23 14 24 c7 14 8 21 2 17 -6 -4 -11 -2 -11 3 0 18 -21 12 -42 -11
-13 -16 -18 -18 -15 -6 4 10 0 15 -8 14 -19 -3 -32 -16 -16 -16 7 0 10 -10 7
-26 -7 -37 -16 -43 -16 -11 0 15 -5 27 -11 27 -5 0 -8 4 -5 9 3 5 -1 12 -10
15 -8 3 -12 2 -9 -4 10 -16 -12 -12 -29 6 -9 8 -16 12 -16 8 0 -5 -5 -3 -12 4
-16 16 -28 15 -28 -1 0 -8 10 -18 22 -24 13 -6 17 -12 11 -16 -18 -12 -65 44
-58 70 4 16 2 21 -9 17 -10 -4 -12 1 -9 20 4 21 0 28 -21 36 -15 5 -25 14 -22
19 3 5 -1 14 -9 21 -7 6 -11 18 -8 26 6 17 -1 18 -28 4 -15 -9 -24 -6 -45 15
-23 23 -26 33 -21 71 6 56 15 65 34 37 24 -36 30 -27 25 35 -4 46 -9 61 -31
79 -29 25 -46 28 -56 13z"/>
<path d="M1485 2233 c-11 -3 -24 -10 -30 -15 -7 -8 -4 -9 8 -4 10 3 30 6 43 6
14 0 22 4 19 10 -6 10 -8 11 -40 3z"/>
<path d="M1269 2201 c-11 -13 -11 -14 6 -7 17 6 18 5 3 -11 -25 -30 -31 -43
-14 -37 8 3 26 21 40 39 l25 33 -23 -2 c-13 0 -29 -7 -37 -15z"/>
<path d="M1628 2184 c-10 -9 10 -76 27 -93 16 -15 17 -14 10 18 -4 19 -14 41
-21 49 -8 7 -12 18 -9 23 7 10 2 12 -7 3z"/>
<path d="M1050 2153 c0 -18 41 -53 62 -53 10 0 18 5 18 11 0 6 7 9 15 5 19 -7
19 4 2 29 -11 14 -16 15 -22 5 -5 -9 -4 -11 3 -6 7 4 12 3 12 -3 0 -6 -9 -15
-20 -21 -15 -8 -24 -5 -45 17 -14 15 -25 22 -25 16z"/>
<path d="M1375 2100 c-11 -5 -39 -9 -62 -9 -34 -1 -43 -5 -43 -19 0 -10 -5
-23 -11 -29 -21 -21 8 -22 63 -2 84 30 249 17 284 -22 21 -24 44 -9 44 29 0
24 -1 24 -19 8 -10 -10 -22 -13 -25 -8 -3 5 -31 12 -63 16 -31 4 -61 10 -67
15 -6 4 -20 11 -31 13 -11 3 -27 8 -35 11 -8 3 -24 2 -35 -3z"/>
<path d="M1350 2002 c0 -6 13 -20 30 -32 40 -29 106 -25 128 8 14 22 14 23
-14 22 -16 0 -55 2 -86 6 -38 4 -58 3 -58 -4z"/>
<path d="M1450 1823 c-14 -7 -21 -13 -16 -13 5 0 3 -6 -3 -14 -9 -11 -7 -14
12 -18 17 -3 26 2 34 18 14 31 3 43 -27 27z"/>
<path d="M1560 1824 c-14 -8 -29 -12 -35 -10 -5 2 -19 -5 -29 -15 -19 -19 -19
-19 7 -19 15 0 27 5 27 11 0 6 7 9 15 5 8 -3 15 -1 15 4 0 6 6 10 13 10 6 0
21 7 31 15 20 15 20 15 0 14 -10 -1 -30 -7 -44 -15z"/>
<path d="M1691 1594 c-27 -45 -44 -124 -27 -124 6 0 12 14 13 31 1 17 7 37 13
44 6 7 10 17 8 21 -1 5 4 20 11 32 21 40 5 35 -18 -4z"/>
<path d="M1220 1504 c0 -11 45 -43 60 -43 9 0 4 9 -15 24 -29 24 -45 31 -45
19z"/>
<path d="M1655 1449 c-4 -6 -5 -13 -2 -16 8 -8 -53 -58 -101 -82 -24 -12 -80
-27 -126 -33 -80 -10 -85 -9 -135 15 -56 28 -111 79 -111 102 0 8 -7 15 -16
15 -8 0 -13 -4 -10 -9 4 -5 1 -11 -6 -13 -13 -5 3 -40 18 -40 5 0 8 -4 7 -8
-2 -5 18 -27 43 -49 75 -66 195 -93 231 -52 9 11 20 18 24 15 5 -2 35 6 68 20
l60 24 -4 -41 c-2 -23 -8 -73 -14 -112 -6 -38 -12 -81 -13 -95 -2 -14 -11 -31
-21 -39 -13 -9 -17 -20 -12 -38 4 -17 0 -32 -12 -47 -17 -19 -17 -20 0 -7 23
18 32 8 17 -19 -9 -17 -14 -19 -26 -9 -11 9 -14 8 -14 -5 0 -9 8 -16 20 -16
19 0 20 -4 14 -37 -8 -42 -20 -55 -46 -49 -15 3 -16 1 -7 -15 5 -11 7 -24 4
-29 -3 -6 0 -10 8 -10 7 0 14 7 14 15 0 8 -5 15 -11 15 -12 0 14 20 27 20 11
0 -4 -53 -17 -62 -7 -5 -7 -8 3 -8 8 0 11 -6 6 -17 -4 -10 -8 -31 -11 -47 -4
-34 -23 -49 -41 -34 -10 8 -13 6 -13 -7 0 -13 6 -16 25 -13 14 3 25 1 25 -3 0
-5 -4 -9 -9 -9 -5 0 -7 -9 -4 -20 4 -17 2 -19 -13 -13 -16 6 -17 4 -7 -8 7 -9
9 -20 3 -29 -6 -9 -5 -17 3 -22 9 -6 8 -10 -2 -17 -15 -9 -19 -23 -25 -71 -5
-39 -5 -42 -15 -35 -5 3 -12 1 -15 -4 -3 -5 2 -12 11 -15 10 -4 13 -10 8 -14
-6 -4 -10 -14 -10 -22 0 -8 -6 -14 -13 -12 -10 2 -10 -2 0 -17 9 -15 9 -23 -1
-35 -7 -8 -10 -20 -6 -26 3 -5 1 -10 -4 -10 -6 0 -11 5 -11 10 0 6 -6 10 -12
10 -7 -1 -3 -9 10 -20 13 -11 18 -21 12 -25 -6 -3 -8 -10 -5 -15 3 -5 -2 -22
-12 -37 -10 -15 -12 -24 -5 -20 8 5 12 2 12 -8 0 -9 -9 -19 -20 -22 -11 -3
-17 -9 -14 -14 3 -5 10 -7 15 -4 13 9 -10 -48 -24 -58 -8 -6 -6 -7 6 -3 9 3
17 1 17 -4 0 -6 -4 -10 -9 -10 -17 0 -19 -26 -1 -27 21 -2 29 23 66 202 14 72
35 171 45 220 41 192 59 286 75 390 3 17 12 68 20 115 8 47 28 164 44 260 17
96 35 188 42 204 17 43 19 82 3 55z"/>
<path d="M1930 1417 c0 -12 74 -27 84 -17 7 7 -1 10 -21 10 -17 0 -38 3 -47 6
-9 3 -16 4 -16 1z"/>
<path d="M2069 1398 c-8 -27 -7 -48 1 -43 6 4 17 1 25 -5 12 -10 15 -9 15 3 0
9 -9 19 -20 22 -11 4 -18 11 -15 16 4 5 4 9 1 9 -3 0 -6 -1 -7 -2z"/>
<path d="M2550 1370 c8 -5 10 -10 5 -10 -6 0 -11 -10 -12 -22 -1 -11 -8 -25
-15 -29 -10 -7 -10 -9 2 -9 12 0 12 -2 2 -9 -8 -4 -13 -11 -13 -15 3 -20 -1
-26 -16 -27 -11 0 -13 -3 -5 -6 28 -11 12 -33 -25 -34 -21 -1 -30 -3 -20 -6 9
-2 17 -12 18 -21 0 -11 2 -12 6 -4 2 6 11 12 19 12 8 0 14 5 14 10 0 6 7 10
15 10 8 0 15 7 15 16 0 14 22 44 33 44 9 0 -14 -95 -24 -99 -6 -2 2 -12 18
-22 16 -11 22 -19 13 -19 -13 0 -13 -2 0 -10 19 -12 21 -60 3 -60 -8 0 -11 -4
-8 -10 3 -5 -4 -10 -17 -11 -13 0 1 -6 30 -13 52 -13 78 -26 52 -26 -9 0 -7
-5 6 -14 18 -14 18 -15 2 -21 -10 -4 -25 -4 -34 -1 -8 3 -12 2 -9 -4 3 -6 14
-10 23 -10 9 0 24 -5 32 -11 12 -9 11 -10 -7 -6 -13 3 -23 1 -23 -4 0 -5 9 -9
19 -9 27 0 35 -16 13 -25 -16 -6 -16 -7 2 -21 12 -8 15 -14 7 -14 -11 0 -11
-3 0 -17 12 -14 12 -16 -1 -9 -9 4 -8 1 3 -7 9 -8 17 -21 17 -30 0 -11 -6 -15
-17 -11 -11 3 -9 0 4 -7 24 -13 39 -74 16 -64 -8 3 -19 5 -24 5 -5 0 -9 7 -9
15 0 8 -4 15 -10 15 -6 0 -6 -9 -1 -22 6 -18 16 -23 44 -23 26 0 33 -3 26 -12
-7 -8 -4 -15 8 -23 15 -9 12 -10 -17 -6 -26 5 -31 3 -20 -5 12 -8 8 -10 -17
-6 -18 2 -33 0 -33 -5 0 -4 10 -8 23 -8 12 0 40 -6 61 -14 31 -11 35 -15 20
-18 -17 -5 -17 -6 6 -16 14 -6 18 -11 10 -12 -12 0 -11 -4 4 -15 11 -8 16 -15
10 -15 -5 0 -2 -5 6 -11 11 -7 3 -9 -30 -5 l-45 6 48 -15 c47 -15 68 -32 25
-20 -18 5 -20 4 -8 -4 22 -15 40 -13 40 4 0 8 -4 15 -8 15 -5 0 -9 6 -9 13 0
7 -16 66 -37 130 -20 65 -45 162 -56 216 -10 54 -37 145 -60 202 -32 80 -43
122 -47 184 -6 89 -16 115 -41 115 -15 0 -15 -2 -2 -10z"/>
<path d="M1192 1315 c26 -25 53 -45 60 -44 7 0 2 8 -12 17 -14 9 -38 29 -54
45 -16 15 -32 27 -35 27 -3 0 15 -21 41 -45z"/>
<path d="M1109 1313 c-1 -15 -3 -62 -5 -103 -5 -128 -11 -204 -19 -222 -4 -11
-3 -18 3 -18 7 0 8 -11 1 -32 -7 -27 -6 -35 8 -46 14 -11 15 -13 3 -12 -34 5
-42 1 -28 -14 19 -21 52 9 38 34 -5 10 -8 19 -6 21 2 2 7 69 11 149 4 80 8
171 10 202 2 32 -1 60 -6 64 -5 3 -10 -7 -10 -23z"/>
<path d="M430 1295 c0 -19 5 -35 11 -35 6 0 9 6 6 13 -2 6 5 18 17 25 20 12
20 13 -3 6 -19 -5 -23 -3 -18 10 4 9 2 16 -3 16 -6 0 -10 -16 -10 -35z"/>
<path d="M380 1289 c0 -19 4 -29 12 -27 14 5 20 38 7 38 -6 0 -7 5 -4 10 3 6
1 10 -4 10 -6 0 -11 -14 -11 -31z"/>
<path d="M1995 1310 c26 -7 27 -8 6 -9 -16 -1 -21 -5 -17 -16 3 -9 0 -15 -9
-15 -9 0 -16 10 -16 23 -1 16 -2 18 -6 5 -2 -10 -11 -18 -20 -18 -9 0 -13 6
-9 15 3 9 0 15 -9 15 -8 0 -15 -4 -15 -10 0 -5 -7 -10 -15 -10 -8 0 -15 -5
-15 -10 0 -7 6 -7 19 -1 18 10 31 6 31 -10 0 -15 -52 -69 -61 -63 -5 3 -9 2
-8 -3 1 -4 -1 -16 -6 -27 -9 -19 8 -36 35 -35 11 1 10 3 -2 6 -25 6 -23 13 17
52 19 19 35 42 35 51 0 15 6 17 40 13 32 -5 40 -3 38 8 -2 8 4 13 14 13 18 -2
20 16 3 28 -5 4 -21 7 -35 7 -23 -1 -23 -2 5 -9z"/>
<path d="M776 1285 c-11 -8 -16 -15 -10 -15 5 -1 -2 -7 -16 -15 -24 -14 -24
-14 -3 -15 14 0 27 10 37 30 8 17 14 30 13 30 -1 0 -11 -7 -21 -15z"/>
<path d="M1812 1282 c-10 -10 -24 -16 -30 -14 -7 2 -12 -3 -12 -12 0 -9 4 -16
10 -16 6 0 6 -10 -1 -27 -7 -19 -7 -25 0 -18 6 6 12 21 14 34 2 13 14 34 26
47 27 28 20 33 -7 6z"/>
<path d="M1693 1270 c4 -17 1 -19 -21 -15 -27 5 -27 5 -3 -5 13 -6 26 -8 29
-5 11 11 12 45 1 45 -6 0 -9 -9 -6 -20z"/>
<path d="M2426 1258 c5 -8 -13 -10 -72 -5 -45 3 -70 2 -59 -3 15 -6 8 -9 -30
-12 l-50 -3 62 -5 c33 -3 59 -2 56 3 -2 4 16 7 41 7 39 0 45 -3 40 -17 -5 -15
-3 -15 10 1 18 23 21 46 5 46 -5 0 -7 -5 -3 -12z"/>
<path d="M377 1243 c-10 -17 -7 -172 3 -178 5 -3 10 -15 10 -26 0 -21 25 -25
50 -9 13 8 12 10 -3 10 -10 0 -15 5 -12 10 3 6 1 10 -6 10 -8 0 -7 5 2 17 12
14 12 16 0 8 -11 -6 -13 -4 -8 8 4 10 1 17 -6 17 -8 0 -6 4 3 10 12 8 12 10
-5 10 -18 1 -17 2 5 16 24 14 24 15 2 11 -12 -3 -20 -1 -17 3 3 5 -1 11 -7 13
-8 4 -4 8 10 13 21 6 22 8 7 24 -15 17 -15 19 2 29 17 10 16 10 -4 11 -12 0
-24 -3 -26 -7z"/>
<path d="M437 1234 c3 -9 6 -25 7 -37 1 -11 7 -22 15 -25 9 -3 11 0 6 8 -4 7
-2 16 6 21 11 7 10 9 -3 9 -10 0 -17 3 -17 8 3 18 -2 32 -11 32 -5 0 -7 -7 -3
-16z"/>
<path d="M779 1226 c10 -11 8 -15 -6 -19 -14 -4 -14 -5 -2 -6 9 0 21 -12 27
-26 6 -14 16 -25 22 -25 5 0 0 20 -12 45 -12 25 -26 45 -31 45 -5 0 -4 -6 2
-14z"/>
<path d="M2105 1220 c-3 -4 23 -8 57 -9 39 0 67 -6 78 -16 22 -20 100 -20 100
0 0 8 -8 15 -17 15 -15 0 -16 -2 -3 -10 11 -7 3 -10 -30 -9 -33 0 -40 3 -25 8
11 5 25 6 30 3 6 -3 7 -2 3 3 -4 4 -33 9 -65 11 -32 3 -73 6 -91 8 -18 2 -35
0 -37 -4z"/>
<path d="M1290 1215 c0 -14 78 -38 115 -36 41 2 59 11 37 18 -6 3 -10 8 -7 12
2 5 -29 9 -70 10 -41 1 -75 -1 -75 -4z"/>
<path d="M2360 1185 c0 -9 9 -15 24 -15 13 0 26 7 30 15 3 9 0 15 -10 15 -8 0
-12 -4 -9 -10 3 -5 -1 -10 -10 -10 -9 0 -13 5 -10 10 3 6 1 10 -4 10 -6 0 -11
-7 -11 -15z"/>
<path d="M1710 1160 c9 -6 11 -13 5 -17 -5 -5 -11 -14 -13 -21 -2 -9 11 -6 38
9 22 12 38 25 35 28 -3 2 -11 -1 -17 -7 -14 -14 -32 -16 -24 -3 3 5 -1 12 -10
15 -24 9 -31 7 -14 -4z"/>
<path d="M1991 1146 c-26 -9 -31 -14 -19 -19 9 -3 19 -1 21 6 3 9 8 9 20 -1
10 -8 34 -12 64 -9 l48 3 -52 2 c-50 2 -69 14 -40 25 26 11 -10 5 -42 -7z"/>
<path d="M2390 1150 c0 -7 -37 -9 -112 -4 -62 4 -111 4 -108 1 3 -3 56 -8 118
-12 100 -7 112 -6 112 9 0 9 -2 16 -5 16 -3 0 -5 -5 -5 -10z"/>
<path d="M2453 1153 c20 -2 35 -8 32 -13 -3 -4 4 -6 15 -3 40 11 28 19 -28 19
-35 1 -42 -1 -19 -3z"/>
<path d="M1430 1120 c-18 -16 -28 -30 -22 -30 6 0 9 -7 6 -15 -4 -8 -14 -15
-23 -15 -14 0 -14 -2 -1 -10 10 -7 11 -10 2 -10 -8 0 -11 -11 -9 -35 3 -19 1
-35 -3 -35 -4 0 -7 -11 -7 -25 0 -14 -9 -32 -19 -40 -17 -12 -16 -13 9 -8 20
4 27 11 27 29 0 14 17 53 39 88 25 42 35 68 29 74 -6 6 -4 19 7 36 23 35 6 33
-35 -4z"/>
<path d="M850 1133 c8 -3 32 -14 53 -24 20 -10 37 -17 37 -15 0 10 -69 46 -86
45 -14 0 -15 -2 -4 -6z"/>
<path d="M1790 1114 c-14 -8 -18 -13 -8 -10 9 2 29 1 45 -4 15 -4 22 -9 15 -9
-7 -1 -10 -6 -6 -12 4 -7 0 -9 -12 -5 -11 3 -26 1 -34 -4 -12 -8 -11 -10 5 -8
40 3 65 -2 63 -13 -2 -6 4 -14 12 -16 13 -4 13 -3 0 6 -13 9 -12 11 3 11 24 0
18 31 -8 47 -17 10 -18 12 -4 18 8 3 28 1 44 -5 15 -6 30 -9 32 -6 2 2 -12 9
-32 16 -27 9 -40 9 -48 1 -14 -14 -50 -15 -42 -1 8 13 5 12 -25 -6z"/>
<path d="M2500 1122 c0 -5 -13 -9 -29 -9 -32 0 -76 -32 -47 -34 25 -2 66 -1
69 1 1 1 14 3 29 5 15 2 34 7 42 12 13 7 12 10 -5 21 -12 8 -18 9 -14 3 3 -6
2 -11 -4 -11 -5 0 -13 5 -16 10 -7 12 -25 13 -25 2z"/>
<path d="M1636 1105 c-12 -9 -15 -15 -7 -15 11 0 11 -3 1 -15 -10 -12 -7 -12
19 1 36 18 45 30 31 39 -6 4 -9 1 -8 -6 2 -7 -6 -15 -17 -17 -17 -4 -18 -2 -6
12 17 20 12 20 -13 1z"/>
<path d="M1715 1096 c-13 -13 -25 -23 -27 -22 -2 0 3 -5 11 -11 8 -7 20 -13
25 -13 8 0 8 3 1 8 -15 10 -13 34 4 40 8 3 11 0 7 -7 -5 -7 -1 -8 10 -4 11 4
13 8 6 11 -7 2 -10 8 -6 13 10 17 -7 9 -31 -15z"/>
<path d="M2353 1113 c19 -5 21 -12 9 -31 -6 -8 -22 -11 -48 -7 -28 3 -34 2
-19 -4 11 -5 31 -10 45 -11 23 -1 23 -2 5 -10 -17 -7 -17 -9 -3 -9 11 -1 15
-6 12 -16 -4 -10 -22 -16 -53 -17 l-46 -1 43 -4 c23 -2 42 -9 42 -14 0 -6 -4
-8 -9 -5 -5 3 -15 -1 -22 -10 -10 -13 -10 -17 0 -24 11 -6 11 -9 0 -13 -9 -3
-6 -6 7 -6 17 -1 24 12 44 82 13 45 25 88 28 95 3 8 -6 12 -24 11 -17 -1 -22
-3 -11 -6z"/>
<path d="M763 1090 c-3 -11 -10 -17 -16 -13 -5 3 -7 1 -3 -5 3 -5 1 -12 -6
-14 -7 -3 -4 -7 7 -12 11 -4 16 -4 12 0 -3 4 3 15 15 25 11 11 17 19 12 19 -5
0 -2 5 6 10 13 8 12 10 -3 10 -11 0 -21 -9 -24 -20z"/>
<path d="M454 1078 c3 -7 7 -26 10 -41 6 -26 9 -28 49 -22 56 9 64 19 9 12
-23 -3 -40 -1 -37 3 3 5 -1 10 -7 13 -8 3 -3 9 12 15 l25 11 -25 1 c-20 0 -22
2 -10 10 12 8 11 10 -7 10 -13 0 -21 -5 -19 -12z"/>
<path d="M2026 1078 c3 -4 26 -8 51 -8 26 0 44 2 42 4 -8 8 -98 12 -93 4z"/>
<path d="M593 1073 c-13 -2 -23 -8 -23 -13 0 -5 15 -5 33 0 17 5 41 11 52 13
26 6 -32 6 -62 0z"/>
<path d="M1646 1062 c-3 -4 4 -16 15 -25 11 -10 17 -23 13 -29 -5 -7 -3 -8 6
-3 7 4 16 2 20 -5 5 -9 9 -9 14 -1 4 6 2 11 -4 11 -6 0 -8 4 -5 10 4 6 -1 7
-11 3 -12 -4 -15 -3 -10 5 4 7 2 12 -3 12 -6 0 -10 5 -8 11 3 14 -19 23 -27
11z"/>
<path d="M1934 1037 c-1 -17 -27 -97 -59 -177 -31 -80 -58 -149 -60 -155 -1
-5 -4 -17 -7 -25 -3 -8 -14 -37 -24 -65 -9 -27 -26 -70 -37 -95 -11 -25 -21
-47 -22 -50 -1 -3 -5 -20 -9 -38 -5 -20 -14 -32 -24 -33 -11 0 -12 -3 -5 -6 9
-3 10 -10 3 -24 -9 -15 -7 -19 5 -19 9 0 13 5 10 10 -4 6 13 11 42 12 l48 1
-45 8 c-36 6 -29 7 37 6 45 -1 79 1 75 5 -5 5 -34 9 -65 9 -31 1 -57 6 -57 10
0 5 6 9 13 10 6 0 3 4 -8 9 -20 9 -20 9 0 9 17 1 18 3 5 12 -11 7 1 9 43 7 31
-2 57 0 57 5 0 4 -24 8 -52 8 -30 1 -42 4 -28 7 23 4 24 5 5 12 -19 8 -19 8 5
18 22 9 23 11 5 12 -17 2 -16 3 5 10 16 5 19 8 8 9 -16 1 -16 4 0 46 11 30 21
44 30 40 7 -2 11 -1 8 4 -10 15 18 19 87 14 40 -3 67 -1 67 5 0 5 -19 8 -42 6
-32 -3 -38 -2 -23 5 33 15 75 13 75 -4 0 -10 10 -15 29 -15 24 0 28 -3 24 -22
-5 -26 34 -59 47 -39 3 6 23 12 44 13 23 1 32 4 24 9 -9 6 -5 9 12 10 l25 1
-25 7 c-32 10 -58 2 -38 -10 12 -8 7 -10 -57 -13 -8 -1 -15 4 -15 9 1 6 10 9
20 7 11 -2 20 2 20 8 0 6 -8 10 -17 8 -10 -2 -17 3 -15 10 1 7 -8 12 -24 12
-14 0 -32 7 -40 15 -11 10 -35 15 -77 15 -44 0 -58 -3 -47 -10 11 -7 4 -9 -25
-9 -35 1 -37 2 -15 9 21 7 12 15 -12 11 -5 0 -8 4 -8 9 0 6 5 10 11 10 5 0 7
4 4 10 -4 6 12 8 42 5 35 -4 42 -3 28 4 -11 5 -31 10 -45 10 -14 1 -20 5 -15
9 6 4 10 14 10 22 0 10 14 17 40 21 l40 6 -40 3 -40 3 45 7 45 7 -37 1 c-21 1
-38 7 -38 12 0 6 5 10 11 10 5 0 7 5 4 10 -4 6 6 10 22 11 l28 1 -25 8 c-25 8
-25 8 5 10 l30 2 -30 8 -30 8 30 2 c25 1 27 3 11 9 -14 5 -16 10 -8 15 7 4 10
12 7 17 -4 5 2 9 12 10 16 0 16 1 -2 9 -11 5 -14 9 -7 9 7 1 11 5 7 10 -3 5 2
16 11 25 8 9 12 20 9 26 -4 6 6 11 22 11 26 2 25 2 -7 9 -21 4 -27 8 -15 9 20
2 20 2 0 11 -30 13 -30 13 -31 -23z"/>
<path d="M2143 1053 c30 -3 50 -10 54 -19 4 -10 23 -14 71 -14 76 0 80 7 7 11
-60 3 -77 8 -69 20 3 5 -21 8 -53 7 -58 -2 -58 -2 -10 -5z"/>
<path d="M700 1043 c0 -14 15 -29 33 -36 12 -4 16 -3 11 4 -4 8 1 9 17 5 16
-5 12 0 -11 13 -38 22 -50 25 -50 14z"/>
<path d="M1801 1031 c-11 -7 -9 -10 8 -16 26 -8 49 4 30 16 -17 11 -21 11 -38
0z"/>
<path d="M2437 1023 c4 -11 3 -14 -5 -9 -7 4 -12 2 -12 -3 0 -6 11 -11 25 -11
14 0 25 5 25 10 0 6 -6 10 -12 10 -9 0 -8 4 2 10 12 8 11 10 -7 10 -17 0 -21
-4 -16 -17z"/>
<path d="M356 1014 c-3 -9 -6 -29 -6 -45 0 -22 5 -29 19 -29 11 0 23 4 26 10
3 5 0 7 -8 4 -12 -4 -15 3 -13 31 2 39 -8 55 -18 29z"/>
<path d="M425 1010 c-11 -17 5 -30 36 -30 17 0 28 4 25 9 -3 4 -18 6 -33 3
-25 -5 -27 -4 -14 11 8 10 9 17 3 17 -6 0 -14 -4 -17 -10z"/>
<path d="M1740 1009 c-11 -8 -12 -12 -2 -16 8 -3 6 -10 -8 -21 -22 -19 -35
-62 -18 -62 5 0 8 7 4 15 -3 8 -1 15 5 15 6 0 8 4 4 9 -3 6 4 15 15 21 15 8
27 7 51 -6 26 -13 33 -13 40 -3 5 9 -2 17 -23 26 -18 8 -37 18 -43 23 -6 5
-16 5 -25 -1z"/>
<path d="M2108 1003 c17 -2 47 -2 65 0 17 2 3 4 -33 4 -36 0 -50 -2 -32 -4z"/>
<path d="M1967 974 c3 -9 8 -11 12 -6 3 6 22 12 41 15 30 3 28 4 -12 5 -39 2
-46 -1 -41 -14z"/>
<path d="M2225 980 c4 -6 -14 -11 -47 -12 -37 -1 -43 -2 -20 -5 26 -3 31 -7
22 -18 -7 -9 0 -8 24 4 33 15 49 41 25 41 -5 0 -7 -4 -4 -10z"/>
<path d="M721 973 c-16 -3 -20 -7 -12 -13 9 -5 6 -9 -9 -13 -16 -4 -20 -2 -16
9 6 16 0 17 -29 4 -20 -9 -20 -9 0 -9 17 -1 18 -3 5 -12 -11 -8 -7 -9 19 -5
18 3 37 6 42 6 5 0 13 9 19 20 6 11 9 19 8 19 -2 -1 -14 -4 -27 -6z"/>
<path d="M1991 966 c11 -9 129 -15 129 -6 0 6 -30 10 -67 10 -36 0 -64 -2 -62
-4z"/>
<path d="M2395 957 c-41 -50 -41 -47 16 -45 44 1 47 2 16 5 -20 2 -35 8 -32
13 3 4 13 7 23 5 9 -1 11 0 5 2 -7 3 -13 9 -13 14 0 15 47 10 64 -6 8 -8 20
-15 27 -15 7 0 2 9 -11 20 -26 22 -79 26 -95 7z"/>
<path d="M535 930 c-3 -5 -1 -10 5 -10 6 0 9 -4 6 -9 -4 -5 12 -5 37 0 62 14
69 20 13 13 -33 -4 -46 -2 -41 5 3 6 2 11 -4 11 -5 0 -13 -4 -16 -10z"/>
<path d="M1736 931 c-3 -5 8 -14 24 -21 17 -7 30 -17 30 -23 0 -6 3 -7 7 -4 3
4 -6 18 -21 32 -30 28 -32 29 -40 16z"/>
<path d="M390 921 c13 -9 12 -12 -5 -25 -23 -18 -41 -15 -37 5 3 10 0 11 -8 3
-7 -7 -9 -25 -5 -48 7 -33 9 -35 21 -19 12 16 14 14 14 -12 0 -3 8 -13 18 -23
18 -20 37 -18 28 3 -2 7 1 18 7 24 9 9 8 11 -4 6 -13 -5 -15 -1 -12 19 4 20 1
26 -13 26 -16 0 -16 2 4 16 17 12 26 13 37 4 8 -6 16 -7 19 -2 3 6 -5 13 -18
16 -13 3 -32 9 -43 12 -15 5 -15 4 -3 -5z"/>
<path d="M660 914 l-55 -13 55 6 c30 3 57 7 59 9 11 10 -9 9 -59 -2z"/>
<path d="M844 921 c4 -5 0 -12 -6 -14 -10 -4 -10 -6 0 -6 7 -1 10 -5 7 -11 -3
-5 5 -15 19 -21 14 -7 23 -16 19 -22 -3 -6 -1 -7 5 -3 19 12 14 23 -15 31 -21
5 -24 8 -12 16 11 7 11 9 0 9 -11 0 -11 3 -1 15 10 12 9 15 -4 15 -10 0 -15
-4 -12 -9z"/>
<path d="M1679 923 c-1 -5 -1 -12 0 -17 1 -5 -5 -6 -14 -2 -11 4 -14 2 -9 -6
5 -8 2 -9 -10 -5 -10 4 -19 1 -23 -9 -5 -13 -7 -13 -14 -2 -6 9 -9 9 -9 1 0
-20 19 -25 41 -10 11 8 30 13 42 10 13 -3 18 -1 11 4 -6 4 -10 16 -8 26 1 9 0
17 -2 17 -2 0 -5 -3 -5 -7z"/>
<path d="M2038 913 c45 -2 119 -2 165 0 45 1 8 3 -83 3 -91 0 -128 -2 -82 -3z"/>
<path d="M2308 913 c18 -7 4 -23 -16 -17 -9 3 -6 -2 8 -10 14 -8 20 -15 14
-16 -6 0 -11 -7 -11 -15 0 -23 14 -18 21 8 10 39 7 57 -11 56 -11 0 -13 -3 -5
-6z"/>
<path d="M2008 893 c23 -2 59 -2 80 0 20 2 1 4 -43 4 -44 0 -61 -2 -37 -4z"/>
<path d="M2163 893 c20 -2 54 -2 75 0 20 2 3 4 -38 4 -41 0 -58 -2 -37 -4z"/>
<path d="M1729 888 c-8 -28 -5 -35 15 -31 21 5 21 5 1 -10 -11 -9 -15 -17 -10
-17 6 0 -1 -8 -15 -16 -14 -8 -17 -13 -7 -10 9 3 25 9 35 12 14 5 14 3 -2 -10
-24 -20 -8 -21 17 -2 17 14 17 15 -4 21 l-22 7 24 14 c13 7 18 13 11 14 -7 0
-11 4 -8 9 4 5 -4 7 -16 4 -19 -4 -20 -3 -8 6 10 7 11 11 3 11 -7 0 -13 -1
-14 -2z"/>
<path d="M2040 871 c39 -7 168 -6 176 1 3 3 -44 5 -103 5 -62 0 -93 -2 -73 -6z"/>
<path d="M1977 843 c5 -14 1 -15 -25 -10 -17 4 -33 3 -36 -1 -3 -5 15 -9 40
-11 43 -2 45 -1 34 19 -13 24 -22 27 -13 3z"/>
<path d="M1384 835 c-4 -8 -14 -15 -23 -15 -14 0 -14 -2 -1 -10 11 -8 12 -12
3 -18 -7 -4 -9 -13 -4 -21 6 -9 10 -6 14 11 6 22 7 22 20 4 12 -16 14 -16 14
-2 0 9 -5 16 -10 16 -5 0 -7 11 -5 25 6 28 1 33 -8 10z"/>
<path d="M2362 835 c-11 -13 -9 -15 15 -15 21 0 24 3 14 9 -11 7 -6 11 20 14
l34 4 -35 1 c-20 1 -41 -5 -48 -13z"/>
<path d="M2605 840 c3 -5 -4 -10 -17 -11 -23 -1 -23 -1 2 -9 14 -4 34 -8 45
-8 16 0 17 1 3 5 -10 2 -18 11 -18 19 0 8 -5 14 -11 14 -5 0 -7 -4 -4 -10z"/>
<path d="M490 830 c12 -8 12 -10 -5 -10 -18 -1 -18 -2 3 -10 12 -5 22 -12 22
-14 0 -3 -7 -3 -15 0 -8 4 -15 1 -15 -5 0 -6 8 -11 17 -11 15 0 14 -2 -3 -15
-19 -14 -19 -14 1 -15 16 0 17 -2 5 -10 -17 -11 -26 -70 -10 -70 6 0 9 4 5 9
-3 5 -1 12 5 16 5 3 10 -3 10 -13 0 -11 -8 -23 -17 -28 -15 -6 -13 -8 12 -14
l30 -8 -27 -1 c-16 0 -28 -6 -28 -11 0 -6 6 -10 13 -9 33 4 38 0 25 -22 -11
-18 -11 -23 0 -26 10 -4 8 -9 -5 -20 -10 -8 -13 -12 -8 -9 6 2 17 1 25 -5 11
-6 8 -9 -12 -9 -16 0 -28 -4 -28 -9 0 -4 12 -6 28 -3 18 3 24 1 17 -6 -10 -10
-105 -21 -105 -12 0 10 -88 32 -99 26 -17 -11 45 -69 73 -69 14 0 23 -4 20
-11 -5 -14 69 -50 88 -43 7 3 3 6 -10 6 -19 1 -22 5 -17 21 5 17 2 20 -22 20
-27 0 -26 1 14 22 35 18 45 19 57 8 21 -17 20 -25 -6 -39 -13 -6 -15 -9 -6 -7
9 3 22 -1 28 -9 8 -10 7 -14 -7 -18 -13 -3 -11 -5 7 -6 l25 -2 -23 -10 c-13
-5 -29 -6 -35 -3 -8 5 -9 3 -2 -4 6 -6 17 -12 25 -14 17 -3 45 -37 37 -44 -3
-3 -1 -19 3 -35 l9 -29 -49 0 c-33 0 -50 -5 -54 -15 -5 -14 13 -19 62 -18 6 1
12 -3 12 -7 0 -5 8 -11 19 -15 12 -4 21 -20 26 -48 4 -23 9 -47 10 -53 5 -21
-12 -37 -31 -30 -14 5 -15 9 -6 15 8 5 1 8 -18 8 -18 0 -35 4 -38 9 -13 17
-73 44 -113 50 -22 4 -42 11 -45 15 -3 5 -22 6 -43 3 -22 -3 -48 -1 -59 5 -14
8 -23 8 -27 1 -5 -8 -12 -7 -22 1 -12 10 -16 10 -24 -2 -10 -16 -3 -44 17 -73
13 -19 14 -18 23 6 5 14 17 28 26 32 25 9 27 8 15 -13 -10 -19 -7 -20 47 -15
32 2 75 7 96 10 46 7 49 -9 5 -24 l-33 -10 37 -1 c39 -1 141 -41 152 -60 4 -6
12 -11 17 -11 6 0 8 4 4 9 -3 5 9 3 25 -6 35 -17 46 -12 35 14 -5 10 -7 22 -6
26 1 5 -19 113 -43 240 -43 217 -60 318 -72 427 -10 81 -23 120 -42 120 -15 0
-15 -2 -2 -10z"/>
<path d="M709 824 c18 -10 -2 -42 -32 -53 l-32 -11 34 5 c41 6 40 5 43 35 2
12 -3 24 -10 26 -7 1 -8 0 -3 -2z"/>
<path d="M2295 805 c3 -21 -1 -25 -21 -25 -14 0 -23 4 -19 9 3 5 1 13 -5 16
-6 4 -9 1 -8 -7 2 -8 -6 -13 -19 -12 -12 0 -20 -3 -17 -8 3 -4 22 -8 42 -8 31
0 38 -4 38 -20 0 -11 -7 -20 -16 -21 -11 0 -9 -3 5 -10 15 -7 9 -8 -22 -5 -24
2 -43 0 -43 -5 0 -5 16 -9 34 -9 l35 0 -5 -47 c-3 -27 -7 -64 -10 -83 -3 -19
-7 -64 -9 -100 -5 -121 -17 -205 -36 -258 -21 -58 -24 -77 -8 -49 13 22 32 22
25 0 -14 -50 -17 -85 -8 -79 5 3 13 31 17 61 9 79 21 68 17 -17 -2 -51 0 -68
7 -57 5 8 13 62 16 120 4 57 10 122 15 144 5 24 5 58 -1 85 -13 58 -11 102 4
112 8 5 6 8 -7 8 -17 0 -17 1 -2 25 9 14 13 25 9 25 -5 0 -8 23 -9 50 0 28 2
50 5 50 3 0 6 17 6 38 0 20 4 52 9 70 6 25 4 32 -7 32 -9 0 -13 -9 -12 -25z"/>
<path d="M1665 810 c-11 -5 -14 -9 -7 -9 7 -1 10 -6 6 -13 -4 -6 -3 -8 4 -4 5
3 12 1 14 -6 3 -7 10 -8 17 -3 11 6 10 10 -3 17 -9 5 -14 13 -11 19 7 10 7 10
-20 -1z"/>
<path d="M325 783 c-6 -25 -8 -62 -6 -136 1 -30 49 -81 79 -84 12 -2 32 -12
44 -23 24 -22 34 -25 42 -11 4 5 -7 20 -23 34 -17 14 -27 28 -23 32 4 5 2 5
-5 2 -14 -9 -45 2 -38 13 3 5 1 11 -4 15 -6 3 -8 12 -4 20 3 8 0 15 -6 15 -18
0 -26 -4 -23 -12 1 -5 -2 -8 -8 -8 -11 0 -12 2 -15 45 -2 40 3 49 23 33 10 -7
14 -8 10 -4 -4 5 -3 15 3 23 6 7 8 13 4 13 -4 0 -1 7 6 17 13 15 12 15 -8 5
-29 -16 -46 -15 -36 1 11 17 13 37 3 37 -4 0 -11 -12 -15 -27z"/>
<path d="M2008 803 c28 -2 76 -2 105 0 28 2 5 3 -53 3 -58 0 -81 -1 -52 -3z"/>
<path d="M2593 803 c-16 -6 -5 -33 14 -33 8 0 12 -4 8 -9 -3 -5 -1 -12 4 -15
5 -4 8 1 7 10 -1 8 -8 19 -16 24 -10 6 -8 9 6 12 15 3 16 5 4 9 -8 3 -20 4
-27 2z"/>
<path d="M1073 778 c3 -10 3 -18 -2 -18 -4 0 -8 -7 -8 -15 0 -19 11 -19 27 0
10 12 8 18 -6 32 -17 17 -17 17 -11 1z"/>
<path d="M1908 763 c17 -2 47 -2 65 0 17 2 3 4 -33 4 -36 0 -50 -2 -32 -4z"/>
<path d="M710 745 c0 -8 -14 -17 -34 -21 -24 -4 -33 -10 -29 -20 3 -9 -2 -14
-16 -14 -12 0 -21 -4 -21 -9 0 -4 18 -3 40 3 31 8 37 12 23 17 -15 5 -12 8 12
14 28 8 45 21 45 38 0 4 -4 7 -10 7 -5 0 -10 -7 -10 -15z"/>
<path d="M1940 738 c0 -4 24 -7 53 -7 54 1 49 5 -15 11 -21 2 -38 0 -38 -4z"/>
<path d="M2435 739 c14 -7 2 -8 -40 -5 -39 3 -51 2 -35 -4 25 -8 25 -8 -4 -9
-16 -1 -27 -4 -23 -7 3 -3 38 0 79 6 40 7 79 12 86 13 6 0 12 4 12 9 0 4 -21
8 -47 7 -38 0 -44 -2 -28 -10z"/>
<path d="M1970 713 c19 -2 42 -6 50 -9 13 -4 13 -6 0 -14 -9 -6 -10 -10 -3
-10 7 0 17 8 22 18 6 9 11 12 11 6 0 -8 13 -9 43 -3 46 9 97 11 65 2 -32 -8
-19 -19 25 -20 35 -1 38 0 19 8 -13 5 -20 13 -17 19 4 7 -38 9 -122 8 -70 0
-112 -3 -93 -5z"/>
<path d="M673 679 c-18 -5 -33 -11 -33 -14 0 -7 75 7 85 16 11 11 -9 10 -52
-2z"/>
<path d="M2460 681 c-17 -5 -21 -9 -12 -15 6 -4 12 -5 12 -2 0 2 14 1 30 -4
35 -10 40 -4 8 11 -19 8 -15 9 20 5 23 -2 40 0 36 5 -6 10 -57 10 -94 0z"/>
<path d="M2579 683 c-1 -5 -1 -12 0 -17 1 -5 -10 -6 -24 -4 -20 4 -25 2 -21
-9 5 -12 -2 -14 -36 -9 l-43 5 43 -11 c34 -9 46 -8 52 1 5 9 18 11 39 6 28 -6
31 -4 30 17 0 13 -3 17 -6 11 -2 -7 -9 -13 -14 -13 -4 0 -6 7 -3 15 4 8 1 15
-5 15 -6 0 -12 -3 -12 -7z"/>
<path d="M275 659 c2 -10 0 -21 -6 -24 -5 -4 -9 -33 -9 -65 0 -32 -4 -69 -9
-82 -5 -13 -7 -37 -4 -52 5 -25 9 -27 37 -23 16 2 46 -2 64 -10 19 -8 36 -12
39 -9 2 2 -4 7 -15 10 -10 4 -24 18 -30 31 -6 14 -16 25 -22 25 -5 0 -17 11
-26 25 -13 20 -14 28 -4 40 7 8 8 15 3 15 -5 0 -10 6 -10 13 -1 6 -4 27 -8 45
-5 19 -4 32 3 32 5 0 12 11 14 23 3 15 0 24 -8 24 -7 0 -11 -8 -9 -18z"/>
<path d="M2185 660 c6 -10 -17 -14 -70 -10 -16 1 -28 0 -25 -3 3 -3 39 -8 80
-10 41 -2 63 -2 48 0 -18 3 -25 9 -21 19 3 8 0 14 -7 14 -6 0 -8 -4 -5 -10z"/>
<path d="M2635 620 c4 -6 10 -8 15 -5 5 3 11 1 15 -5 3 -5 -2 -10 -12 -10 -15
0 -16 -2 -3 -10 8 -5 31 -9 50 -9 28 0 31 2 15 8 -11 5 -26 6 -32 4 -23 -9
-14 7 10 18 l22 10 -22 -5 c-13 -2 -23 0 -23 5 0 5 -9 9 -21 9 -11 0 -17 -5
-14 -10z"/>
<path d="M1565 610 c-3 -6 1 -7 10 -4 20 8 16 -15 -5 -34 -8 -7 0 -5 19 4 33
16 34 17 16 30 -22 17 -32 17 -40 4z"/>
<path d="M2420 582 c23 -4 24 -5 5 -13 -19 -7 -19 -8 3 -8 12 -1 22 3 22 8 0
5 10 7 23 4 18 -4 19 -3 7 6 -8 6 -31 10 -50 9 -28 0 -30 -2 -10 -6z"/>
<path d="M674 565 c3 -10 -1 -15 -11 -15 -9 0 -14 -2 -11 -5 3 -3 29 2 59 10
l54 15 -45 -5 c-32 -4 -41 -2 -30 5 13 8 12 10 -4 10 -12 0 -16 -5 -12 -15z"/>
<path d="M1648 561 c11 -7 10 -10 -3 -15 -24 -9 -27 -8 -19 6 5 7 3 8 -5 3
-15 -9 -7 -17 34 -33 27 -11 28 -11 11 3 -18 13 -18 15 -2 21 14 5 15 9 4 15
-7 5 -17 9 -23 9 -5 0 -4 -4 3 -9z"/>
<path d="M1546 548 c2 -3 1 -8 -3 -11 -5 -2 -2 -2 5 -1 6 2 12 -1 12 -6 0 -6
5 -10 11 -10 5 0 7 4 4 10 -3 5 0 8 7 7 7 -2 10 -2 5 0 -4 3 -5 8 -3 11 2 4
-6 7 -19 7 -13 0 -21 -3 -19 -7z"/>
<path d="M1878 548 c-3 -7 -17 -12 -33 -10 -38 3 -25 -10 15 -14 19 -2 29 1
27 8 -1 8 13 12 40 13 24 0 43 3 43 8 0 12 -88 8 -92 -5z"/>
<path d="M1977 535 c-5 -12 -3 -14 11 -6 10 5 36 6 62 1 25 -5 51 -5 58 -1 9
5 2 8 -19 9 -17 0 -49 4 -69 7 -29 5 -39 3 -43 -10z"/>
<path d="M2340 530 c0 -3 27 -11 60 -16 33 -6 57 -7 53 -3 -12 9 -113 27 -113
19z"/>
<path d="M2420 537 c3 -3 29 -10 58 -15 30 -5 50 -6 45 -1 -9 9 -111 25 -103
16z"/>
<path d="M2598 523 c12 -2 22 -10 22 -18 0 -7 9 -15 20 -18 11 -3 20 -1 20 4
0 5 -8 9 -17 10 -16 0 -15 1 2 8 16 7 14 9 -14 14 -19 4 -39 6 -45 6 -6 -1 -1
-4 12 -6z"/>
<path d="M757 514 c-3 -4 -30 -14 -59 -24 l-53 -17 77 1 c42 1 74 5 71 9 -3 5
-22 6 -42 3 l-36 -6 28 15 c15 9 27 18 27 20 0 7 -6 6 -13 -1z"/>
<path d="M1570 510 c-11 -7 -11 -10 -2 -10 7 0 10 -4 7 -10 -4 -6 1 -7 11 -3
12 4 15 3 10 -6 -5 -7 -18 -10 -30 -7 -11 3 -28 1 -36 -4 -13 -9 -13 -10 0
-10 12 -1 11 -3 -3 -11 -9 -6 -15 -14 -12 -20 4 -5 0 -9 -7 -9 -9 0 -9 -3 2
-10 12 -8 12 -10 1 -10 -8 0 -12 -3 -9 -6 4 -3 17 0 30 7 12 7 36 13 52 13 33
1 45 30 18 45 -14 8 -13 11 11 22 25 11 25 13 9 25 -20 16 -32 17 -52 4z m25
-63 c7 -7 4 -8 -7 -4 -26 9 -22 -2 5 -13 20 -8 19 -8 -8 -8 -16 1 -39 -2 -50
-6 -16 -6 -17 -6 -5 3 13 9 13 11 0 11 -9 1 -6 6 9 14 18 10 20 15 10 20 -8 3
-3 3 11 0 14 -4 30 -11 35 -17z"/>
<path d="M1952 493 c39 -3 46 -7 42 -21 -5 -16 -5 -16 6 0 6 9 17 15 25 12 8
-4 15 -2 15 4 0 5 -30 9 -67 9 -50 0 -56 -1 -21 -4z"/>
<path d="M2430 489 c0 -5 8 -9 18 -10 14 0 14 -2 -3 -9 -16 -7 -17 -9 -3 -9 9
-1 19 3 22 8 4 5 22 5 43 0 79 -17 105 -20 98 -9 -3 5 -1 10 4 10 6 0 11 -3
11 -7 0 -9 57 -9 66 -1 2 3 -12 9 -33 12 -21 4 -46 10 -57 13 -12 3 -16 1 -12
-6 10 -15 -25 -14 -96 3 -32 8 -58 10 -58 5z"/>
<path d="M830 479 c0 -6 -4 -7 -10 -4 -5 3 -10 1 -10 -4 0 -6 5 -11 11 -11 5
0 8 -4 4 -9 -3 -6 3 -14 13 -20 14 -7 19 -6 19 4 0 7 -7 11 -14 8 -8 -3 -13 0
-11 8 2 8 9 17 17 20 12 4 11 7 -2 12 -9 3 -17 2 -17 -4z"/>
<path d="M1820 483 c14 -2 31 -12 39 -21 13 -16 13 -16 8 0 -3 9 -1 19 6 22 7
2 -8 4 -33 4 -25 0 -34 -3 -20 -5z"/>
<path d="M2788 458 c2 -10 9 -18 16 -18 7 0 6 -4 -2 -9 -11 -6 -10 -10 4 -15
23 -9 27 -3 19 33 -4 20 -12 29 -24 28 -12 -1 -17 -7 -13 -19z"/>
<path d="M2130 450 c13 -8 12 -10 -4 -10 -23 0 -13 -13 12 -15 11 -1 18 6 18
17 0 11 -8 18 -21 18 -16 0 -17 -2 -5 -10z"/>
<path d="M1938 438 c-6 -13 2 -17 43 -20 27 -1 49 0 49 5 0 4 -18 7 -39 7 -22
0 -41 5 -43 12 -3 8 -7 6 -10 -4z"/>
<path d="M2530 447 c10 -11 90 -25 90 -16 0 5 -6 9 -14 9 -7 0 -29 3 -47 6
-19 4 -32 4 -29 1z"/>
<path d="M2383 427 c28 -11 34 -22 17 -32 -13 -8 -13 -25 1 -25 5 0 7 5 3 11
-5 9 10 10 52 6 l59 -6 -50 13 c-37 9 -46 14 -35 21 12 7 10 11 -10 16 -14 4
-34 7 -45 7 -15 0 -14 -3 8 -11z"/>
<path d="M2530 421 c27 -10 19 -14 -20 -11 -14 1 -23 0 -20 -3 5 -5 41 -13
105 -21 l40 -6 -43 13 c-24 6 -42 17 -40 22 2 6 -8 11 -22 12 l-25 2 25 -8z"/>
<path d="M1965 400 c17 -4 24 -8 18 -9 -18 -1 -16 -21 1 -21 8 0 13 8 12 18
-2 11 -13 18 -32 19 l-29 2 30 -9z"/>
<path d="M1525 383 c-15 -12 -16 -14 -3 -10 9 3 19 0 22 -8 5 -14 -27 -31 -42
-21 -5 3 -9 -1 -9 -9 0 -8 4 -12 8 -10 3 3 21 0 39 -6 23 -9 28 -14 18 -20
-18 -12 -31 -11 -23 1 9 15 -8 12 -31 -5 -18 -13 -18 -14 6 -9 l25 5 -25 -15
c-16 -10 -20 -16 -10 -16 8 0 2 -8 -14 -17 -27 -14 -28 -17 -13 -28 15 -11 15
-13 -6 -23 -12 -6 -16 -11 -9 -11 7 -1 11 -5 8 -9 -2 -4 4 -8 14 -8 10 0 16 4
14 8 -3 4 1 8 8 8 10 0 9 3 -2 11 -12 9 -11 10 6 6 12 -2 21 1 21 7 0 7 -8 12
-18 12 -10 -1 -17 4 -16 9 1 6 5 9 10 7 7 -2 11 14 8 31 -1 5 9 6 21 2 18 -5
20 -4 8 4 -8 6 -12 11 -8 11 3 0 13 3 22 6 11 4 14 1 11 -15 -3 -14 0 -18 12
-14 10 4 11 8 3 13 -8 5 -7 9 5 14 9 3 14 10 11 15 -4 5 0 12 6 15 7 3 4 4 -7
1 -11 -2 -27 0 -35 5 -13 9 -13 10 0 10 9 0 11 3 5 8 -12 9 -16 54 -4 46 5 -3
9 0 9 5 0 16 -22 13 -45 -6z"/>
<path d="M2814 378 c-6 -13 -9 -17 -7 -10 1 6 -4 12 -11 12 -9 0 -12 -7 -9
-20 3 -13 14 -20 29 -20 24 0 38 -12 27 -24 -11 -11 -10 -46 0 -39 6 4 7 -3 3
-18 -4 -13 -8 -30 -8 -36 -1 -7 -5 -13 -9 -13 -4 0 -6 -16 -3 -35 3 -26 0 -35
-10 -35 -8 0 -22 -3 -32 -7 -13 -5 -15 -3 -9 7 6 10 3 12 -13 8 -12 -4 -25 -2
-28 3 -3 5 -11 9 -17 9 -7 0 -6 -4 3 -10 13 -8 13 -10 -1 -10 -20 0 -75 -27
-71 -35 6 -14 0 -25 -15 -25 -9 0 -14 -3 -11 -6 4 -3 25 1 49 9 29 10 52 12
73 6 77 -22 114 1 101 61 -4 17 0 49 10 76 13 40 14 56 5 96 -7 26 -16 51 -21
54 -5 3 -7 10 -4 15 4 5 2 9 -2 9 -5 0 -14 -10 -19 -22z"/>
<path d="M223 384 c-14 -6 -18 -45 -5 -42 4 1 17 -1 29 -6 13 -4 31 -2 43 4
23 12 55 -3 44 -21 -3 -5 6 -9 20 -9 14 0 44 -7 66 -16 23 -9 44 -14 47 -10
10 10 14 44 5 49 -20 11 -62 16 -62 7 0 -5 11 -12 25 -16 14 -4 24 -9 21 -11
-3 -3 -21 0 -41 7 -27 9 -34 15 -26 23 8 8 -2 15 -36 24 -62 17 -115 23 -130
17z"/>
<path d="M1903 337 c51 -7 67 -13 63 -23 -4 -9 2 -14 17 -13 12 0 16 3 10 6
-7 2 -13 10 -13 17 0 8 -20 16 -52 20 -82 9 -101 4 -25 -7z"/>
<path d="M2455 339 c22 -4 51 -8 65 -7 23 0 22 1 -5 8 -16 4 -46 8 -65 8 l-35
0 40 -9z"/>
<path d="M2585 340 c19 -8 18 -9 -4 -9 -32 -1 -25 -7 19 -15 25 -4 31 -3 20 4
-11 7 -11 10 -2 10 7 0 10 5 7 10 -3 6 -18 10 -33 9 -24 0 -25 -1 -7 -9z"/>
<path d="M1681 336 c4 -3 33 -6 209 -20 59 -5 58 -4 -20 8 -79 13 -199 21
-189 12z"/>
<path d="M211 315 c0 -11 3 -27 8 -34 6 -10 5 -27 -5 -49 -18 -43 -18 -47 1
-32 8 6 19 9 24 5 6 -3 19 -1 28 5 15 10 16 11 1 6 -9 -3 -19 2 -23 11 -6 17
10 33 34 33 11 0 9 -4 -5 -15 -20 -15 -8 -21 15 -6 21 13 2 33 -25 27 -19 -5
-24 -2 -24 14 0 11 -4 20 -9 20 -5 0 -12 8 -14 18 -4 14 -5 14 -6 -3z"/>
<path d="M490 312 c0 -11 37 -32 44 -25 8 9 -14 33 -30 33 -8 0 -14 -3 -14 -8z"/>
<path d="M1663 300 c-3 -11 -10 -20 -15 -20 -5 0 -7 -4 -3 -9 3 -5 1 -12 -4
-16 -5 -3 -8 -14 -6 -25 2 -11 -1 -20 -7 -20 -5 0 -8 -7 -4 -15 3 -8 1 -15 -5
-15 -6 0 -7 -5 -3 -12 5 -7 2 -9 -8 -5 -12 4 -14 1 -11 -14 3 -12 0 -19 -8
-19 -11 0 -11 -2 -2 -8 9 -6 7 -17 -11 -42 -12 -19 -21 -41 -19 -47 3 -7 -1
-13 -8 -13 -7 0 -10 -3 -6 -6 9 -9 166 -10 160 -2 -2 5 -34 8 -70 8 -54 0 -63
2 -54 13 6 8 7 18 3 22 -4 5 1 5 11 2 9 -4 17 -2 17 3 0 5 -8 11 -17 13 -10 3
9 6 42 8 53 2 55 3 17 6 -40 4 -42 6 -40 34 2 21 7 29 21 29 17 0 18 -2 6 -17
-13 -17 -12 -17 4 -4 16 13 17 16 4 26 -12 8 -13 15 -4 30 5 11 14 22 18 25 4
3 7 14 7 25 -1 46 0 46 67 44 36 -1 68 1 72 4 3 4 -24 7 -60 7 -37 0 -67 4
-67 9 0 5 10 7 22 3 14 -3 19 -2 14 6 -12 20 -47 14 -53 -8z"/>
<path d="M1761 306 c2 -2 36 -6 74 -9 44 -4 61 -3 45 2 -24 9 -127 15 -119 7z"/>
<path d="M2017 298 c-24 -13 -21 -28 6 -27 21 0 21 1 2 9 -18 7 -16 8 10 11
20 3 25 6 14 10 -8 4 -23 3 -32 -3z"/>
<path d="M2170 301 c0 -6 5 -11 12 -11 6 0 9 -2 6 -5 -3 -3 -26 -1 -52 5 -37
8 -51 7 -67 -4 -17 -11 -18 -14 -4 -19 9 -4 15 -1 15 9 0 10 6 14 18 11 76
-21 120 -14 87 13 -10 9 -15 9 -15 1z"/>
<path d="M2401 306 c8 -8 102 -26 169 -31 44 -4 49 -3 26 5 -15 5 -51 11 -80
15 -28 3 -67 8 -86 11 -19 4 -32 4 -29 0z"/>
<path d="M1916 288 c3 -5 18 -8 34 -8 22 0 28 -4 24 -15 -4 -8 -2 -15 3 -15 5
0 9 9 10 19 1 15 -6 20 -37 23 -21 2 -36 0 -34 -4z"/>
<path d="M357 253 c-9 -8 12 -33 28 -33 6 0 20 -9 30 -20 12 -13 30 -20 54
-19 33 0 34 1 14 11 -13 6 -25 19 -28 29 -7 23 -83 48 -98 32z"/>
<path d="M677 238 c-15 -12 -14 -13 10 -13 27 1 81 24 56 25 -6 0 -15 -4 -18
-10 -3 -5 -11 -10 -16 -10 -6 0 -7 5 -4 10 9 14 -8 12 -28 -2z"/>
<path d="M772 239 c-13 -5 -21 -13 -17 -18 3 -6 -3 -14 -12 -20 -26 -15 -10
-13 28 4 23 9 28 14 15 15 -20 0 -20 0 0 15 22 16 19 18 -14 4z"/>
<path d="M1543 234 c0 -6 10 -9 21 -6 20 4 20 4 3 -10 -17 -13 -17 -14 4 -15
11 -1 19 1 15 4 -3 3 2 12 12 20 16 12 16 13 -2 6 -11 -3 -17 -2 -14 3 4 5 -4
9 -16 9 -13 0 -23 -5 -23 -11z"/>
<path d="M1904 236 c-12 -13 -15 -46 -3 -46 4 0 14 -3 23 -6 9 -3 16 -2 16 4
0 5 -10 12 -22 16 -22 5 -22 6 -4 19 11 8 15 16 10 19 -5 3 -14 1 -20 -6z"/>
<path d="M2350 232 c0 -5 17 -8 38 -8 20 0 57 -3 82 -7 32 -4 38 -4 23 3 -31
13 -143 22 -143 12z"/>
<path d="M2618 220 c30 -13 28 -24 -3 -16 -14 4 -25 2 -25 -3 0 -8 58 -21 90
-20 10 0 8 3 -5 9 -17 7 -16 9 10 10 42 1 13 17 -45 24 -34 4 -39 3 -22 -4z"/>
<path d="M1718 213 c17 -2 47 -2 65 0 17 2 3 4 -33 4 -36 0 -50 -2 -32 -4z"/>
<path d="M2527 209 c4 -4 17 -9 28 -12 15 -3 12 -5 -10 -7 -22 -1 -13 -6 34
-16 35 -8 66 -12 69 -9 3 2 -14 7 -36 11 -27 4 -39 11 -36 19 3 8 -6 14 -26
17 -17 3 -27 1 -23 -3z"/>
<path d="M1853 202 c17 -7 16 -9 -3 -30 l-21 -22 28 0 c17 0 23 3 16 8 -8 5
-9 13 -3 22 15 23 12 30 -12 29 -20 0 -20 -1 -5 -7z"/>
<path d="M761 186 l-23 -13 23 -6 c13 -3 25 -4 28 -2 2 3 -2 5 -10 5 -8 1 -3
7 11 15 14 8 19 14 10 14 -8 0 -26 -6 -39 -13z"/>
<path d="M1531 181 c-11 -7 -11 -9 0 -14 10 -4 9 -6 -3 -6 -9 -1 -19 -5 -22
-10 -3 -5 5 -8 18 -7 13 0 22 4 20 7 -2 4 3 10 12 13 8 3 12 10 9 16 -8 12
-16 12 -34 1z"/>
<path d="M2460 169 c14 -6 50 -13 80 -15 46 -3 49 -2 20 5 -19 5 -55 11 -80
14 -38 5 -41 5 -20 -4z"/>
<path d="M1890 161 c0 -13 58 -32 65 -20 4 5 -6 9 -20 9 -15 0 -24 4 -20 10 3
6 -1 10 -9 10 -9 0 -16 -4 -16 -9z"/>
<path d="M2010 150 c14 -4 36 -8 50 -8 23 -1 23 0 5 8 -11 5 -33 8 -50 8 -29
0 -29 0 -5 -8z"/>
<path d="M1728 143 c18 -2 45 -2 60 0 15 2 0 4 -33 4 -33 0 -45 -2 -27 -4z"/>
<path d="M1470 130 c-13 -9 -13 -10 0 -10 12 0 12 -2 2 -9 -11 -7 -10 -10 3
-15 24 -9 32 -7 15 4 -13 9 -13 10 0 11 8 1 24 1 35 0 20 -1 20 -1 0 8 -11 4
-26 6 -34 3 -9 -3 -12 -1 -7 6 9 14 6 15 -14 2z"/>
<path d="M2185 101 c-8 -46 10 -90 28 -72 8 8 8 14 2 19 -6 4 -12 25 -14 47
-4 53 -8 55 -16 6z"/>
<path d="M1980 110 c0 -9 89 -24 96 -17 3 2 -18 9 -46 14 -27 6 -50 7 -50 3z"/>
<path d="M785 99 c-20 -8 -20 -8 0 -9 18 -1 17 -2 -4 -11 -31 -12 -23 -21 11
-11 18 5 23 12 19 23 -4 12 -12 14 -26 8z"/>
<path d="M879 87 c5 -5 28 -4 52 1 l44 10 -52 -2 c-29 0 -48 -5 -44 -9z"/>
<path d="M220 35 c0 -36 1 -37 18 -22 10 9 27 18 38 20 10 1 28 8 39 15 18 11
15 12 -20 11 -22 -1 -48 2 -57 6 -15 6 -18 1 -18 -30z"/>
<path d="M2435 60 c-49 -5 -98 -6 -107 -4 -12 4 -18 0 -18 -10 0 -9 3 -15 8
-15 26 4 34 -1 22 -16 -10 -11 0 -10 45 5 77 26 183 26 267 0 85 -27 134 -26
148 1 15 27 6 35 -25 21 -32 -15 -38 -15 -29 -1 4 8 0 8 -15 0 -15 -9 -26 -9
-42 -1 -11 7 -27 9 -35 6 -8 -3 -14 -2 -14 2 0 4 -8 8 -17 9 -10 1 -36 4 -58
6 -22 3 -80 1 -130 -3z"/>
<path d="M1439 53 c-1 -5 -1 -12 0 -17 1 -5 -5 -6 -13 -3 -15 6 -16 -17 -1
-30 4 -5 5 -2 0 6 -6 11 -4 13 9 8 11 -5 15 -3 10 5 -5 8 -2 9 10 5 9 -4 15
-3 11 2 -9 15 19 19 35 5 11 -9 20 -10 30 -3 13 9 13 10 0 6 -8 -2 -21 2 -28
10 -10 9 -19 10 -32 3 -24 -13 -33 -13 -25 0 3 6 4 10 1 10 -3 0 -7 -3 -7 -7z"/>
<path d="M342 29 c-18 -12 -31 -24 -28 -27 3 -3 11 0 18 5 7 6 36 14 63 18 39
6 46 9 30 16 -32 12 -48 10 -83 -12z"/>
<path d="M1788 43 c6 -2 12 -11 12 -19 0 -21 17 -17 23 6 4 16 0 20 -21 19
-15 0 -21 -3 -14 -6z"/>
<path d="M2450 20 c-26 -4 -12 -7 50 -12 49 -4 89 -3 95 3 5 5 -4 9 -25 10
-19 0 -46 1 -60 2 -14 1 -41 0 -60 -3z"/>
</g>
</svg>
